<svg width="24" height="24" viewBox="0 0 24 24" fill="none" xmlns="http://www.w3.org/2000/svg">
<mask id="mask0_2244_2205" style="mask-type:alpha" maskUnits="userSpaceOnUse" x="0" y="0" width="24" height="24">
<rect width="24" height="24" fill="#CCCCCC"/>
</mask>
<g mask="url(#mask0_2244_2205)">
<path d="M1 19V9L8 4L15 9V9.675C14.6167 9.85833 14.2583 10.0708 13.925 10.3125C13.5917 10.5542 13.2833 10.825 13 11.125V10L8 6.45L3 10V17H5V12H11V17H11.075C11.125 17.35 11.2 17.6917 11.3 18.025C11.4 18.3583 11.525 18.6833 11.675 19H9V14H7V19H1ZM23 1V11.125C22.7167 10.825 22.4083 10.5542 22.075 10.3125C21.7417 10.0708 21.3833 9.85833 21 9.675V3H12V4.4L10 2.95V1H23ZM17 7H19V5H17V7ZM18 21C16.6167 21 15.4375 20.5125 14.4625 19.5375C13.4875 18.5625 13 17.3833 13 16C13 14.6167 13.4875 13.4375 14.4625 12.4625C15.4375 11.4875 16.6167 11 18 11C19.3833 11 20.5625 11.4875 21.5375 12.4625C22.5125 13.4375 23 14.6167 23 16C23 17.3833 22.5125 18.5625 21.5375 19.5375C20.5625 20.5125 19.3833 21 18 21ZM17.5 19H18.5V16.5H21V15.5H18.5V13H17.5V15.5H15V16.5H17.5V19Z" fill="#5B5B5B"/>
</g>
</svg>
