<svg width="24" height="24" viewBox="0 0 24 24" fill="none" xmlns="http://www.w3.org/2000/svg">
<mask id="mask0_2244_2215" style="mask-type:alpha" maskUnits="userSpaceOnUse" x="0" y="0" width="24" height="24">
<rect width="24" height="24" fill="#D9D9D9"/>
</mask>
<g mask="url(#mask0_2244_2215)">
<path d="M1.05 21V18.2C1.05 17.65 1.19167 17.1333 1.475 16.65C1.75833 16.1667 2.15 15.8 2.65 15.55C3.5 15.1167 4.45833 14.75 5.525 14.45C6.59167 14.15 7.76667 14 9.05 14C10.3333 14 11.5083 14.15 12.575 14.45C13.6417 14.75 14.6 15.1167 15.45 15.55C15.95 15.8 16.3417 16.1667 16.625 16.65C16.9083 17.1333 17.05 17.65 17.05 18.2V21H1.05ZM3.05 19H15.05V18.2C15.05 18.0167 15.0042 17.85 14.9125 17.7C14.8208 17.55 14.7 17.4333 14.55 17.35C13.95 17.05 13.1792 16.75 12.2375 16.45C11.2958 16.15 10.2333 16 9.05 16C7.86667 16 6.80417 16.15 5.8625 16.45C4.92083 16.75 4.15 17.05 3.55 17.35C3.4 17.4333 3.27917 17.55 3.1875 17.7C3.09583 17.85 3.05 18.0167 3.05 18.2V19ZM9.05 13C7.95 13 7.00833 12.6083 6.225 11.825C5.44167 11.0417 5.05 10.1 5.05 9H4.8C4.65 9 4.52917 8.95417 4.4375 8.8625C4.34583 8.77083 4.3 8.65 4.3 8.5C4.3 8.35 4.34583 8.22917 4.4375 8.1375C4.52917 8.04583 4.65 8 4.8 8H5.05C5.05 7.25 5.23333 6.575 5.6 5.975C5.96667 5.375 6.45 4.9 7.05 4.55V5.5C7.05 5.65 7.09583 5.77083 7.1875 5.8625C7.27917 5.95417 7.4 6 7.55 6C7.7 6 7.82083 5.95417 7.9125 5.8625C8.00417 5.77083 8.05 5.65 8.05 5.5V4.15C8.2 4.1 8.35833 4.0625 8.525 4.0375C8.69167 4.0125 8.86667 4 9.05 4C9.23333 4 9.40833 4.0125 9.575 4.0375C9.74167 4.0625 9.9 4.1 10.05 4.15V5.5C10.05 5.65 10.0958 5.77083 10.1875 5.8625C10.2792 5.95417 10.4 6 10.55 6C10.7 6 10.8208 5.95417 10.9125 5.8625C11.0042 5.77083 11.05 5.65 11.05 5.5V4.55C11.65 4.9 12.1333 5.375 12.5 5.975C12.8667 6.575 13.05 7.25 13.05 8H13.3C13.45 8 13.5708 8.04583 13.6625 8.1375C13.7542 8.22917 13.8 8.35 13.8 8.5C13.8 8.65 13.7542 8.77083 13.6625 8.8625C13.5708 8.95417 13.45 9 13.3 9H13.05C13.05 10.1 12.6583 11.0417 11.875 11.825C11.0917 12.6083 10.15 13 9.05 13ZM9.05 11C9.6 11 10.0708 10.8042 10.4625 10.4125C10.8542 10.0208 11.05 9.55 11.05 9H7.05C7.05 9.55 7.24583 10.0208 7.6375 10.4125C8.02917 10.8042 8.5 11 9.05 11ZM16.55 15L16.4 14.25C16.3 14.2167 16.2042 14.1792 16.1125 14.1375C16.0208 14.0958 15.9333 14.0333 15.85 13.95L15.15 14.2L14.65 13.3L15.2 12.8V12.2L14.65 11.7L15.15 10.8L15.85 11.05C15.9167 10.9833 16 10.925 16.1 10.875C16.2 10.825 16.3 10.7833 16.4 10.75L16.55 10H17.55L17.7 10.75C17.8 10.7833 17.9 10.825 18 10.875C18.1 10.925 18.1833 10.9833 18.25 11.05L18.95 10.8L19.45 11.7L18.9 12.2V12.8L19.45 13.3L18.95 14.2L18.25 13.95C18.1667 14.0333 18.0792 14.0958 17.9875 14.1375C17.8958 14.1792 17.8 14.2167 17.7 14.25L17.55 15H16.55ZM17.05 13.25C17.25 13.25 17.425 13.175 17.575 13.025C17.725 12.875 17.8 12.7 17.8 12.5C17.8 12.3 17.725 12.125 17.575 11.975C17.425 11.825 17.25 11.75 17.05 11.75C16.85 11.75 16.675 11.825 16.525 11.975C16.375 12.125 16.3 12.3 16.3 12.5C16.3 12.7 16.375 12.875 16.525 13.025C16.675 13.175 16.85 13.25 17.05 13.25ZM18.85 10L18.65 8.95C18.5 8.9 18.3625 8.8375 18.2375 8.7625C18.1125 8.6875 18 8.6 17.9 8.5L16.85 8.85L16.15 7.65L17 6.9C16.9667 6.81667 16.95 6.75 16.95 6.7V6.3C16.95 6.25 16.9667 6.18333 17 6.1L16.15 5.35L16.85 4.15L17.9 4.5C18 4.4 18.1125 4.3125 18.2375 4.2375C18.3625 4.1625 18.5 4.1 18.65 4.05L18.85 3H20.25L20.45 4.05C20.6 4.1 20.7375 4.1625 20.8625 4.2375C20.9875 4.3125 21.1 4.4 21.2 4.5L22.25 4.15L22.95 5.35L22.1 6.1C22.1333 6.18333 22.15 6.25 22.15 6.3V6.7C22.15 6.75 22.1333 6.81667 22.1 6.9L22.95 7.65L22.25 8.85L21.2 8.5C21.1 8.6 20.9875 8.6875 20.8625 8.7625C20.7375 8.8375 20.6 8.9 20.45 8.95L20.25 10H18.85ZM19.55 7.75C19.9 7.75 20.1958 7.62917 20.4375 7.3875C20.6792 7.14583 20.8 6.85 20.8 6.5C20.8 6.15 20.6792 5.85417 20.4375 5.6125C20.1958 5.37083 19.9 5.25 19.55 5.25C19.2 5.25 18.9042 5.37083 18.6625 5.6125C18.4208 5.85417 18.3 6.15 18.3 6.5C18.3 6.85 18.4208 7.14583 18.6625 7.3875C18.9042 7.62917 19.2 7.75 19.55 7.75Z" fill="#5B5B5B"/>
</g>
</svg>
