<svg width="24" height="24" viewBox="0 0 24 24" fill="none" xmlns="http://www.w3.org/2000/svg">
<mask id="mask0_2244_2235" style="mask-type:alpha" maskUnits="userSpaceOnUse" x="0" y="0" width="24" height="24">
<rect width="24" height="24" fill="#D9D9D9"/>
</mask>
<g mask="url(#mask0_2244_2235)">
<path d="M2 22V20C2.63333 20 3.10417 19.8333 3.4125 19.5C3.72083 19.1667 4.36667 19 5.35 19C6.33333 19 6.975 19.1667 7.275 19.5C7.575 19.8333 8.04167 20 8.675 20C9.30833 20 9.775 19.8333 10.075 19.5C10.375 19.1667 11.0167 19 12 19C12.95 19 13.5958 19.1667 13.9375 19.5C14.2792 19.8333 14.75 20 15.35 20C15.9833 20 16.45 19.8333 16.75 19.5C17.05 19.1667 17.6917 19 18.675 19C19.6583 19 20.3 19.1667 20.6 19.5C20.9 19.8333 21.3667 20 22 20V22C21.0333 22 20.3917 21.8333 20.075 21.5C19.7583 21.1667 19.2917 21 18.675 21C18.0583 21 17.5917 21.1667 17.275 21.5C16.9583 21.8333 16.3167 22 15.35 22C14.3833 22 13.7375 21.8333 13.4125 21.5C13.0875 21.1667 12.6167 21 12 21C11.3667 21 10.9 21.1667 10.6 21.5C10.3 21.8333 9.65833 22 8.675 22C7.69167 22 7.05 21.8333 6.75 21.5C6.45 21.1667 5.98333 21 5.35 21C4.73333 21 4.26667 21.1667 3.95 21.5C3.63333 21.8333 2.98333 22 2 22ZM8.675 17.5C7.725 17.5 7.08333 17.3333 6.75 17C6.41667 16.6667 5.95 16.5 5.35 16.5C4.76667 16.5 4.3 16.6667 3.95 17C3.6 17.3333 2.95 17.5 2 17.5V15.5C2.63333 15.5 3.1 15.3333 3.4 15C3.7 14.6667 4.34167 14.5 5.325 14.5C5.425 14.5 5.525 14.5042 5.625 14.5125C5.725 14.5208 5.81667 14.5333 5.9 14.55L4.95 11.05L3.575 12.85L2 11.6L9.775 2L21.3 6.4L20.575 8.275L18.475 7.425L20.5 14.95C20.7333 15.0833 20.9625 15.2083 21.1875 15.325C21.4125 15.4417 21.6833 15.5 22 15.5V17.5C21.05 17.4833 20.4083 17.3125 20.075 16.9875C19.7417 16.6625 19.275 16.5 18.675 16.5C18.0417 16.5 17.575 16.6667 17.275 17C16.975 17.3333 16.3333 17.5 15.35 17.5C14.4 17.5 13.7542 17.3333 13.4125 17C13.0708 16.6667 12.6 16.5 12 16.5C11.3667 16.5 10.9 16.6667 10.6 17C10.3 17.3333 9.65833 17.5 8.675 17.5ZM8.675 15.5C9.175 15.5 9.5625 15.3833 9.8375 15.15C10.1125 14.9167 10.5333 14.7333 11.1 14.6L10.175 11.2L14.05 10.175L15.45 15.475C15.9667 15.4417 16.375 15.2875 16.675 15.0125C16.975 14.7375 17.5167 14.575 18.3 14.525L16.15 6.5L10.425 4.4L6.5 9.1L8.225 15.45C8.29167 15.4667 8.3625 15.4792 8.4375 15.4875C8.5125 15.4958 8.59167 15.5 8.675 15.5Z" fill="#5B5B5B"/>
</g>
</svg>
