<svg width="24" height="24" viewBox="0 0 24 24" fill="none" xmlns="http://www.w3.org/2000/svg">
<mask id="mask0_2244_2210" style="mask-type:alpha" maskUnits="userSpaceOnUse" x="0" y="0" width="24" height="24">
<rect width="24" height="24" fill="#D9D9D9"/>
</mask>
<g mask="url(#mask0_2244_2210)">
<path d="M12 21C10.9 21 9.95833 20.6083 9.175 19.825C8.39167 19.0417 8 18.1 8 17H5C4.45 17 3.97917 16.8042 3.5875 16.4125C3.19583 16.0208 3 15.55 3 15C3 12.6667 3.76667 10.6542 5.3 8.9625C6.83333 7.27083 8.73333 6.3 11 6.05V3H13V6.05C15.2667 6.3 17.1667 7.27083 18.7 8.9625C20.2333 10.6542 21 12.6667 21 15C21 15.55 20.8042 16.0208 20.4125 16.4125C20.0208 16.8042 19.55 17 19 17H16C16 18.1 15.6083 19.0417 14.825 19.825C14.0417 20.6083 13.1 21 12 21ZM5 15H19C19 13.0667 18.3167 11.4167 16.95 10.05C15.5833 8.68333 13.9333 8 12 8C10.0667 8 8.41667 8.68333 7.05 10.05C5.68333 11.4167 5 13.0667 5 15ZM12 19C12.55 19 13.0208 18.8042 13.4125 18.4125C13.8042 18.0208 14 17.55 14 17H10C10 17.55 10.1958 18.0208 10.5875 18.4125C10.9792 18.8042 11.45 19 12 19Z" fill="#5B5B5B"/>
</g>
</svg>
