<svg width="170" height="41" viewBox="0 0 170 41" fill="none" xmlns="http://www.w3.org/2000/svg">
<g clip-path="url(#clip0_2244_2240)">
<path d="M51.8604 28.138H63.8124V24.538H56.1084V10.978H51.8604V28.138Z" fill="#1A1A1A"/>
<path d="M70.8928 25.7379C69.1888 25.7379 68.3008 24.2499 68.3008 22.0179C68.3008 19.7859 69.1888 18.2739 70.8928 18.2739C72.5968 18.2739 73.5088 19.7859 73.5088 22.0179C73.5088 24.2499 72.5968 25.7379 70.8928 25.7379ZM70.9168 28.5219C74.8768 28.5219 77.4688 25.7139 77.4688 22.0179C77.4688 18.3219 74.8768 15.5139 70.9168 15.5139C66.9808 15.5139 64.3408 18.3219 64.3408 22.0179C64.3408 25.7139 66.9808 28.5219 70.9168 28.5219Z" fill="#1A1A1A"/>
<path d="M84.3237 32.386C86.1477 32.386 87.7557 31.978 88.8357 31.018C89.8197 30.13 90.4677 28.786 90.4677 26.938V15.85H86.7237V17.17H86.6757C85.9557 16.138 84.8517 15.49 83.2197 15.49C80.1717 15.49 78.0597 18.034 78.0597 21.634C78.0597 25.402 80.6277 27.466 83.3877 27.466C84.8757 27.466 85.8117 26.866 86.5317 26.05H86.6277V27.274C86.6277 28.762 85.9317 29.626 84.2757 29.626C82.9797 29.626 82.3317 29.074 82.1157 28.426H78.3237C78.7077 30.994 80.9397 32.386 84.3237 32.386ZM84.2997 24.562C82.8357 24.562 81.8757 23.362 81.8757 21.514C81.8757 19.642 82.8357 18.442 84.2997 18.442C85.9317 18.442 86.7957 19.834 86.7957 21.49C86.7957 23.218 86.0037 24.562 84.2997 24.562Z" fill="#1A1A1A"/>
<path d="M98.1663 25.7379C96.4623 25.7379 95.5743 24.2499 95.5743 22.0179C95.5743 19.7859 96.4623 18.2739 98.1663 18.2739C99.8703 18.2739 100.782 19.7859 100.782 22.0179C100.782 24.2499 99.8703 25.7379 98.1663 25.7379ZM98.1903 28.5219C102.15 28.5219 104.742 25.7139 104.742 22.0179C104.742 18.3219 102.15 15.5139 98.1903 15.5139C94.2543 15.5139 91.6143 18.3219 91.6143 22.0179C91.6143 25.7139 94.2543 28.5219 98.1903 28.5219Z" fill="#1A1A1A"/>
<path d="M105.884 28.138H109.796V15.85H105.884V28.138ZM105.884 14.146H109.796V10.978H105.884V14.146Z" fill="#1A1A1A"/>
<path d="M111.494 32.194H115.406V26.866H115.454C116.222 27.898 117.35 28.522 118.934 28.522C122.15 28.522 124.286 25.978 124.286 21.994C124.286 18.298 122.294 15.49 119.03 15.49C117.35 15.49 116.15 16.234 115.31 17.338H115.238V15.85H111.494V32.194ZM117.926 25.498C116.246 25.498 115.286 24.13 115.286 22.138C115.286 20.146 116.15 18.634 117.854 18.634C119.534 18.634 120.326 20.026 120.326 22.138C120.326 24.226 119.414 25.498 117.926 25.498Z" fill="#1A1A1A"/>
<path d="M130.655 28.522C133.871 28.522 136.247 27.13 136.247 24.442C136.247 21.298 133.703 20.746 131.543 20.386C129.983 20.098 128.591 19.978 128.591 19.114C128.591 18.346 129.335 17.986 130.295 17.986C131.375 17.986 132.119 18.322 132.263 19.426H135.863C135.671 17.002 133.799 15.49 130.319 15.49C127.415 15.49 125.015 16.834 125.015 19.426C125.015 22.306 127.295 22.882 129.431 23.242C131.063 23.53 132.551 23.65 132.551 24.754C132.551 25.546 131.807 25.978 130.631 25.978C129.335 25.978 128.519 25.378 128.375 24.154H124.679C124.799 26.866 127.055 28.522 130.655 28.522Z" fill="#1A1A1A"/>
<path d="M141.561 28.498C143.265 28.498 144.345 27.826 145.233 26.626H145.305V28.138H149.049V15.85H145.137V22.714C145.137 24.178 144.321 25.186 142.977 25.186C141.729 25.186 141.129 24.442 141.129 23.098V15.85H137.241V23.914C137.241 26.65 138.729 28.498 141.561 28.498Z" fill="#1A1A1A"/>
<path d="M150.75 28.138H154.662V21.25C154.662 19.786 155.382 18.754 156.606 18.754C157.782 18.754 158.334 19.522 158.334 20.842V28.138H162.246V21.25C162.246 19.786 162.942 18.754 164.19 18.754C165.366 18.754 165.918 19.522 165.918 20.842V28.138H169.83V20.146C169.83 17.386 168.438 15.49 165.654 15.49C164.07 15.49 162.75 16.162 161.79 17.65H161.742C161.118 16.33 159.894 15.49 158.286 15.49C156.51 15.49 155.334 16.33 154.566 17.602H154.494V15.85H150.75V28.138Z" fill="#1A1A1A"/>
<path fill-rule="evenodd" clip-rule="evenodd" d="M20.6836 40.138C31.7293 40.138 40.6836 31.1837 40.6836 20.138C40.6836 9.09237 31.7293 0.138062 20.6836 0.138062C9.63788 0.138062 0.683594 9.09237 0.683594 20.138C0.683594 31.1837 9.63788 40.138 20.6836 40.138ZM26.9229 9.4549C27.2266 8.37611 26.1797 7.73819 25.2236 8.41936L11.8767 17.9276C10.8398 18.6663 11.0029 20.138 12.1217 20.138H15.6363V20.1108H22.4861L16.9048 22.0801L14.4443 30.8212C14.1406 31.9 15.1874 32.5379 16.1436 31.8567L29.4905 22.3485C30.5274 21.6098 30.3642 20.138 29.2455 20.138H23.9157L26.9229 9.4549Z" fill="#ED0641"/>
</g>
<defs>
<clipPath id="clip0_2244_2240">
<rect width="170" height="41" fill="white"/>
</clipPath>
</defs>
</svg>
