<svg width="170" height="41" viewBox="0 0 170 41" fill="none" xmlns="http://www.w3.org/2000/svg">
<g clip-path="url(#clip0_2348_5075)">
<path d="M51.8604 28.138H63.8124V24.538H56.1084V10.978H51.8604V28.138Z" fill="white"/>
<path d="M70.8928 25.7382C69.1888 25.7382 68.3008 24.2502 68.3008 22.0182C68.3008 19.7862 69.1888 18.2742 70.8928 18.2742C72.5968 18.2742 73.5088 19.7862 73.5088 22.0182C73.5088 24.2502 72.5968 25.7382 70.8928 25.7382ZM70.9168 28.5222C74.8768 28.5222 77.4688 25.7142 77.4688 22.0182C77.4688 18.3222 74.8768 15.5142 70.9168 15.5142C66.9808 15.5142 64.3408 18.3222 64.3408 22.0182C64.3408 25.7142 66.9808 28.5222 70.9168 28.5222Z" fill="white"/>
<path d="M84.3237 32.3862C86.1477 32.3862 87.7557 31.9782 88.8357 31.0182C89.8197 30.1302 90.4677 28.7862 90.4677 26.9382V15.8502H86.7237V17.1702H86.6757C85.9557 16.1382 84.8517 15.4902 83.2197 15.4902C80.1717 15.4902 78.0597 18.0342 78.0597 21.6342C78.0597 25.4022 80.6277 27.4662 83.3877 27.4662C84.8757 27.4662 85.8117 26.8662 86.5317 26.0502H86.6277V27.2742C86.6277 28.7622 85.9317 29.6262 84.2757 29.6262C82.9797 29.6262 82.3317 29.0742 82.1157 28.4262H78.3237C78.7077 30.9942 80.9397 32.3862 84.3237 32.3862ZM84.2997 24.5622C82.8357 24.5622 81.8757 23.3622 81.8757 21.5142C81.8757 19.6422 82.8357 18.4422 84.2997 18.4422C85.9317 18.4422 86.7957 19.8342 86.7957 21.4902C86.7957 23.2182 86.0037 24.5622 84.2997 24.5622Z" fill="white"/>
<path d="M98.1663 25.7382C96.4623 25.7382 95.5743 24.2502 95.5743 22.0182C95.5743 19.7862 96.4623 18.2742 98.1663 18.2742C99.8703 18.2742 100.782 19.7862 100.782 22.0182C100.782 24.2502 99.8703 25.7382 98.1663 25.7382ZM98.1903 28.5222C102.15 28.5222 104.742 25.7142 104.742 22.0182C104.742 18.3222 102.15 15.5142 98.1903 15.5142C94.2543 15.5142 91.6143 18.3222 91.6143 22.0182C91.6143 25.7142 94.2543 28.5222 98.1903 28.5222Z" fill="white"/>
<path d="M105.884 28.138H109.796V15.85H105.884V28.138ZM105.884 14.146H109.796V10.978H105.884V14.146Z" fill="white"/>
<path d="M111.494 32.1942H115.406V26.8662H115.454C116.222 27.8982 117.35 28.5222 118.934 28.5222C122.15 28.5222 124.286 25.9782 124.286 21.9942C124.286 18.2982 122.294 15.4902 119.03 15.4902C117.35 15.4902 116.15 16.2342 115.31 17.3382H115.238V15.8502H111.494V32.1942ZM117.926 25.4982C116.246 25.4982 115.286 24.1302 115.286 22.1382C115.286 20.1462 116.15 18.6342 117.854 18.6342C119.534 18.6342 120.326 20.0262 120.326 22.1382C120.326 24.2262 119.414 25.4982 117.926 25.4982Z" fill="white"/>
<path d="M130.655 28.5222C133.871 28.5222 136.247 27.1302 136.247 24.4422C136.247 21.2982 133.703 20.7462 131.543 20.3862C129.983 20.0982 128.591 19.9782 128.591 19.1142C128.591 18.3462 129.335 17.9862 130.295 17.9862C131.375 17.9862 132.119 18.3222 132.263 19.4262H135.863C135.671 17.0022 133.799 15.4902 130.319 15.4902C127.415 15.4902 125.015 16.8342 125.015 19.4262C125.015 22.3062 127.295 22.8822 129.431 23.2422C131.063 23.5302 132.551 23.6502 132.551 24.7542C132.551 25.5462 131.807 25.9782 130.631 25.9782C129.335 25.9782 128.519 25.3782 128.375 24.1542H124.679C124.799 26.8662 127.055 28.5222 130.655 28.5222Z" fill="white"/>
<path d="M141.561 28.4981C143.265 28.4981 144.345 27.8261 145.233 26.6261H145.305V28.1381H149.049V15.8501H145.137V22.7141C145.137 24.1781 144.321 25.1861 142.977 25.1861C141.729 25.1861 141.129 24.4421 141.129 23.0981V15.8501H137.241V23.9141C137.241 26.6501 138.729 28.4981 141.561 28.4981Z" fill="white"/>
<path d="M150.75 28.1382H154.662V21.2502C154.662 19.7862 155.382 18.7542 156.606 18.7542C157.782 18.7542 158.334 19.5222 158.334 20.8422V28.1382H162.246V21.2502C162.246 19.7862 162.942 18.7542 164.19 18.7542C165.366 18.7542 165.918 19.5222 165.918 20.8422V28.1382H169.83V20.1462C169.83 17.3862 168.438 15.4902 165.654 15.4902C164.07 15.4902 162.75 16.1622 161.79 17.6502H161.742C161.118 16.3302 159.894 15.4902 158.286 15.4902C156.51 15.4902 155.334 16.3302 154.566 17.6022H154.494V15.8502H150.75V28.1382Z" fill="white"/>
<path fill-rule="evenodd" clip-rule="evenodd" d="M20.6836 40.1382C31.7293 40.1382 40.6836 31.1839 40.6836 20.1382C40.6836 9.09249 31.7293 0.138184 20.6836 0.138184C9.63788 0.138184 0.683594 9.09249 0.683594 20.1382C0.683594 31.1839 9.63788 40.1382 20.6836 40.1382ZM26.9229 9.45502C27.2266 8.37623 26.1797 7.73831 25.2236 8.41948L11.8767 17.9278C10.8398 18.6665 11.0029 20.1382 12.1217 20.1382H15.6363V20.111H22.4861L16.9048 22.0803L14.4443 30.8214C14.1406 31.9002 15.1874 32.5381 16.1436 31.8569L29.4905 22.3487C30.5274 21.61 30.3642 20.1382 29.2455 20.1382H23.9157L26.9229 9.45502Z" fill="#ED0641"/>
</g>
<defs>
<clipPath id="clip0_2348_5075">
<rect width="170" height="41" fill="white"/>
</clipPath>
</defs>
</svg>
